<mxfile host="app.diagrams.net" modified="2022-07-01T01:21:59.135Z" agent="5.0 (Windows NT 10.0; Win64; x64) AppleWebKit/537.36 (KHTML, like Gecko) Chrome/103.0.0.0 Safari/537.36" etag="NlDkfgQeSN0Lv2xUrpyK" version="20.0.4" type="github">
  <diagram id="IYEPm8jSgx4fJYBNTcXm" name="Page-1">
    <mxGraphModel dx="1038" dy="523" grid="1" gridSize="10" guides="1" tooltips="1" connect="1" arrows="1" fold="1" page="1" pageScale="1" pageWidth="827" pageHeight="1169" math="0" shadow="0">
      <root>
        <mxCell id="0" />
        <mxCell id="1" parent="0" />
        <mxCell id="lzqDUzzG9wcNbirKXYka-5" style="edgeStyle=orthogonalEdgeStyle;rounded=1;orthogonalLoop=1;jettySize=auto;html=1;exitX=0.5;exitY=1;exitDx=0;exitDy=0;entryX=0.5;entryY=0;entryDx=0;entryDy=0;fontSize=20;startArrow=classic;startFill=1;strokeWidth=3;" edge="1" parent="1" source="lzqDUzzG9wcNbirKXYka-3" target="lzqDUzzG9wcNbirKXYka-2">
          <mxGeometry relative="1" as="geometry" />
        </mxCell>
        <mxCell id="lzqDUzzG9wcNbirKXYka-3" value="&lt;font style=&quot;font-size: 20px;&quot;&gt;&amp;nbsp; &amp;nbsp; &amp;nbsp; &amp;nbsp; &amp;nbsp; &amp;nbsp;可视化大屏&lt;/font&gt;" style="rounded=1;whiteSpace=wrap;html=1;" vertex="1" parent="1">
          <mxGeometry x="70" y="130" width="270" height="90" as="geometry" />
        </mxCell>
        <mxCell id="lzqDUzzG9wcNbirKXYka-1" value="" style="shape=image;verticalLabelPosition=bottom;labelBackgroundColor=default;verticalAlign=top;aspect=fixed;imageAspect=0;image=data:image/png,iVBORw0KGgoAAAANSUhEUgAAAGAAAABgCAYAAADimHc4AAAABmJLR0QA/wD/AP+gvaeTAAAM10lEQVR4nO2da3AdZRnHf+9eztmT+z05aZK2aUpSGhraAlXA4ih2SqGto+MXZxw/iuigDhcd0RFRBLQKiB+AUpECAhUQHaEFodhybykUeqG06T30kvSS9JqkSY4f9qSk5+y7u++ec5Ijnt/MTuacJ++7z+6z+55n/8+7u5AjR44cOXLkyPH/Sgj4LXAAiGXJ0gf8B5iShu2bArwa73Ost2t42QfcAZgAi7LAIdmyFyhW3uWfUgTsyYLtkC13ARzOAkfclkWqe30Ed2WB/25LJ8DRLHDEbekDzlPc8QBNQG8W+O+2HNKAJwNs3GgSIthZsAgIp9mXdLMMoBroYeyPBq9lrsKGfSkL/PVajgNREXf458BtTlvSfP0CauddrLDtNgMbu9f0vtJ1iUqb/t5TbFj9HEODA07mj4A24IxHNzrwPnBBokHTdS74wlcJRfKV3Mr/1oT9oswcr9II4JPn17L1vn/KzD8DbtfiHxZhZwtJ7Fz6CgMne1XXjdFaconIN9aptAlZeUQbp8rMU4Dv+OjmuzjsfICaia2qOx+jseDtIDt/8HQfux5bKTN3AHcDDAfgNHZEkujvPsmeZa+prh+AyMJoKd5H7Dl47KTbgHKX5qXAL5wMHsF1Rogua071TLVGNrufXE3/0RMy80+AU/BpAAAeA9Y6/ffev79J78FuZSe0SqtRr4u8o9RG16lvlm6zdAfH+SVQ4WSoa56JphsqrhCaVbadsKZ2ygB9XT10PPeWzPwe8MTwh5EBiAE/iP89h6H+AXY8/G9VPwCwrq5tA3FEpU1ZdAKFpVUy83U4DzFTgGudGhSUVFJeO1HFBURI/9icVTZLqVGc9odeZLBPeuL/EBga/qAlGN8CnnVqdXDVBno2Of5MuCIsrTA8s2SLaruG8y8BIZxMOvHxM4E/EL+0P9cBQcP5yklEzJpbNSTA0QE3jm3poHP1Rpn5b8A543liAABuxr74SXApRvviFRBLOkE8MS8r/5wwtW0qbfKKyqgYN0lm/jJwzYjP85GkqRW1jeQXO45KUrTy8Bp9YoG6DhWL0b54uWwf9QM/TVqXwz/uAP7k1MOxLXvdoitHCC00Lzoshvmm7rwZ6EbyQR3nHuwLLemFmqYb1DVPV1klwGlrQVRtvIrTuWqj2yhxL9Ce+KVTAAB+DRxyMmz/80sM9Tvm6a6YE/JatbKQ44+8tE3YIjrJMaMEmAR8H7geiVRRO+kCzHCekp9GS+F7WpEp/QGSMTQwyI5HXpaZjwB3Ohl0SYNe7NR0XqJh4GQvRiRM8VTl1Bh9Qn74zPpucBqrJRQUl3N4/y4Gz/Q7mWcBswEr0RCOFNB44RcQQnaMOaCJA5Fv1E8SulBLl4C9T79B52vS0eFmYJXjKl36vB/Y5GTY9cQqtxxXilZsVhjNhe+rtBGaTn2LNC0tRiJX10+5CE2THV/OhGdX7hOmUNaPzvScZPdTq2XmLcADMqNbAAawLxiSGDzdx67HX/Xt4Eisr1RdjC4+UWlTWt1AUUXU9/8XlddQWt2g5Jew9E3mtKIZSo3ieKgFN+JyMep1fv4LeMnJsO+Fdzm566AvB89B10Lh2ZXKDRumXIxwTkvPQQhB/RTltHMoMj9qSdJeV07t6WLfCqnishJ43q29nwHyJmAw8cvY0BDb7n/BR/NkzGnFM7Q8fYNKm0hBCRV1kz3/r7J+MnmFpUr+aDWRNVptRJrzurHtweXEBoecTEPY+8593T7W8SHwsJPh6PodHHlXKb0/i7Wwrhh7mPNNXfN0DFM+ROtmiHGTL1TyI0bshHV1TYtSozge278EW3ZwxW+KcAtwzMngcgS4r7gq1KCPi7yr0sYww9Q2SdNSxjVNwwglJUSumNNKN2kFRolSIzxHgBO4a1Zn8RuATuB3ToZTe7rY/6KS6nyWyDXRViE4qtKmanwLVn5R0vdWfhFV49UOZKHTEZ5dcZFSozj7V6xz+w28E9jvpx+FJJnfY89SSGLn0lcYOJWsXnhi6QXGhWVKY5gQGo1tl2OYobPfGWaIxrbL1XJ+IHRldbfQhVquCgyc6mPno1Ktfy+2LuULlZUPAF3A1xINg71nEEDpdPXfMaM+Utv//tEdDFHmt03IyqOirgkrv4iSqnoaps5yPCvcEAXGRmtOTauyw8Cux151G/u/h4+xfxi1QwYeB9Y4GfY+8wan9yupznEPhIjMjSZlWV6YIYvK+slU1k/GVBz3gQFrwTjfAR+Jh9a/BvirSn+qAYhh69nJNYOBQXb8RaqFuKI35p+nlYZ9HzWpok+IrNMrQ7VB2npo/TeiKDiqBgDsmsEzTobO1Rvp2bQ7QJdgLYyOx9agMkpM0B2eE5WnUi54aP3LSND6/RAkAJCBmoFWbJYbkws+COiPb8IzS7drEV1NIgU/Wv8tQfwJGoCdwH1OhmNbOuhcFaBmAITn1MxA+EvfAmFqu0KfLw+k93ho/ffgoPX7IWgAAG5HUjNoX+I6TkoRhjDDV1QdTsEnVyJzqvvR1AUfD62/C/hNUJ9SCUA39iyEJDwyBVfMaUWtIs90lMFTQZSG1utNBUHmmHpleLdizywMRCoBAJeagce8GDlCYM2vLmbEzIE00B9ZUDsuSMMzPa7zorYAiwN7ReoBcK8ZyGeGuaLXROqMaCRtaakxuXC9VmJWBmm74xFXrf8GFCeeJZJqAMCtZrDcVS9xJXxNdCqC46k4BoAQh6wrq9qCNPXQuVYCwfT4EaQjAJCBmoHI0yOh6SVbU3XMvLR8PyEt0DT1bQ+8IFN6B7EvSFMmXQHISM0gdGnFDExNfTZYHGHp20MXlQa66Dq8ditH1kkzyyWAUkFJRroCABmoGaALEZlb7Tgdwgcx66pqU73IaJ+525c4jqpga/23BvQpiXQGwLVm4FI3dUVvLGjSSgzlo02vstbrDflqlfk4HvXuO/Cp9fshnQEAu2bgKAYFvc8AwFo4rh4n6UNOb/jq6qYg6/KY8dGBfdWbNtIdAOl9Bh75tCtaSajEbMr3rW8YUws3a0WhwiDr8pjz9GPi8/rTRboDAHbN4E0nQ+CaARCeU9OGJro8/1HXDoa+WK1WmY/Te7DbS+t/QmYMSiYCEEOii6dSM8DUjPClZY7a00jCV1Qc0QzF2mQcj3mvN6Co9fshEwGADNUMzBmlU0REl+a0Is/YarYWBXq8gcfM72XA60H69SJTAYAM1Axsnai2EGedaMiaHy0MMrvNw6fAWr8fMhmAncAfnQyp1Az0qFVjVFsfJn0/LvKBXmP5n0A6Ao+7fwJr/X7IZAAAfgU4JtRBawYA4QXRlph9QQRADE6Er4oGmt3mcf9bSlq/HzIdgOPYQUgilZqByDOscFvJ9uHP4emlO7R8PRKkL487QFPS+v2Q6QBAJmoGgDm7og1T2ysM8Yl5WXkgvcfjHuiUtX4/KM8KC0AM++r4m0mGgUGGevspn9Ws3KkQAq3QPGJMKhjUK8Nq06HjtD+4gp7N0rH/28DHQfpVYTTOALDnyKe9ZmC0FE40mgsD3VA3Glq/H0YrAAA/wmE6eio1g1QYDa3fD6MZgM1koGYQBA+t/yHSpPX7YTQDALZQl96agSIeWv9x0qj1+2G0A9CJ/YTGJFKpGajgQ+s/kHEnRjDaAYAM1Qz84EPrvzdjK5cwGmloItL7DIb6ziCECHSfgR92PrrSbey/FvtJW6PKWJwBYM+hT3vNwA0Prf8dxujhhWMVgMzUDFzw0PqV5/Wni7EKANg1g6edDKnUDJzw0PqfIkNavx/GMgBg11jTWzNQ6yujWr8fxjoAGakZjMRD678b2C4zjgZjHQBwqxk8tCJwzQB8af13BO48TYxFGppIP5JnEw2e6kOPhChpVX82EcCep1+n6/XNMvNNjOHYP0w2nAGQgZqBh9b/EaOg9fshWwIwiP2DnGw47XpXupSdS1/2mtev/ty1DJAtAQCXmoHHcxmSOLmnk/0vSu/vWAksV/YuQ2RTACBNNYP2B6TK6qhq/X7ItgC41gwOr/W+XyObtH4/ZFsAwKVm0L54hWvNINu0fj9kYwDcawbL5c94yjat3w/ZGABwqxk8utIxu8lGrd8P2XAh5sQA9pnw9UTDUPzKuCyhZrBzafZp/X7I1jMA7Ln4bzgZOp5985yaQe+Bo3T8I/u0fj9kcwB81wxctH5pH9lCNgcA4G3sZ+4n0blqAz2bdtta/2vSR0uMqdb/WWEikheyFbXUx4pa6mWviTodb5sjDQR5JeGYS82fJQpRe9trJ6m9BDSHA9fhPwCOL/PJkRo6to7jtfM3A8ovYMjhj3l4B0DlnZM5ArAC+c5P/4SiHEmcj/2UqsSdP4DkHZI50s99JAcgK8W2zyphbMX0UHxZhP0+sRw5cuTIkeN/hv8CuflD+2ViCfIAAAAASUVORK5CYII=;" vertex="1" parent="1">
          <mxGeometry x="80" y="135" width="80" height="80" as="geometry" />
        </mxCell>
        <mxCell id="lzqDUzzG9wcNbirKXYka-4" value="" style="rounded=1;whiteSpace=wrap;html=1;" vertex="1" parent="1">
          <mxGeometry x="70" y="330" width="270" height="90" as="geometry" />
        </mxCell>
        <mxCell id="lzqDUzzG9wcNbirKXYka-2" value="" style="shape=image;verticalLabelPosition=bottom;labelBackgroundColor=default;verticalAlign=top;aspect=fixed;imageAspect=0;image=data:image/png,iVBORw0KGgoAAAANSUhEUgAAAGAAAABgCAYAAADimHc4AAAABmJLR0QA/wD/AP+gvaeTAAAODUlEQVR4nO2be3Qc1XnAf9+dlWXJlu2VbQyy2J07u9gBzBuSJgFsCI/yTBs4aYgJcNIcOBQKoZySBE5fSfMgPSFpTwM4NKExzxJKDDnHvGIeCaEJCSmFGIdktTMrS4DNsS0jW1irnfn6x8zKK1uyJNu85/fPnrlz753v3m/u3O9xF1JSUlJSUlJSUlJSUlJSUlJSUlJSUlJSUlJSUlJSUlJSUlJSUlJSUlJSUlL2CrJjgbX2bBHZqKr9vu//39sh1PsJM0rZYar6D8Apb7Uwk6VQKHzEWrtsyZIlmXeALEVr7W2e531sMu12UkC1Wr0RWADkCoXCUfl8/sC9JSQgCxcubJto5WKx2JzL5bIdHR2tjeXW2uOstSuiKPoFcPHatWvb96KMk6JYLB7sed7NURStBs5X1SMn036nN6e5uXmxqu4LXBJF0XHGmEM7Ojqmv/zyywN7QdiDqtXqc9baDDAEbAGqwFZgGjAlqZoFCMMQx3FwHOdRkhXpuu6FwH+OGEQm88aeyrY7FIvFGWEYPg3MaCiOJtPHiBVQKBQWqeq9xBPRBPwKeLq5ufkRa+11hULho3sicKlUWi0iRwK/T/rPAlVV/aGqfltEviki3xOR60XkbmLlICJd9T6CIFguIkuB4UnfunVrbU/k2l1KpdLrTU1NBeCeepmITEoBIzbhefPmTWttbd0C/JF4kl4VkQdUdXlSd5aIfLalpeWO1atXV3dXcM/zPqaqP00ub/N9/4LR6rmu+3ERWQF8zff96xrvWWv/HbgMwHGcqaVSaXB35dlTXNfdV0ReAVDVq4Ig+M5E2w6vANd1T21tbb07uewknuyXgTZV7QB+kTzgBwMDA8+7rvtnrutO3R2Bq9Xq7xsudax6QRDcDzwK9I1ye7iPzs7OcHfk2FsEQbAOqMsw5nhGIwPguu5iEbkHGAQ2AJuAj6rqscSrYLqqrheRa4CXVFUcx+lR1b+y1lrHcW4ulUqrJ/rQpqamCX8ypkyZcs4Yt962N34UlFgBzmQbZgBEZAHxhtiRlBsReSCKoseB9caYfsdxLq0vc9d1p27ZssVpaWm5VkTODMPws9ba83zff2DvjGc7L730Uv94dfr7+3fyZ95GJiVLxvO8L6rql4HHgUERuT+Xy/1tpVI5EVgfBMFzEE+653mHqOqfAMe2trYe6zjOEf39/WFra+tpwELXdacGQbBtrw9pHLZt2/ZOUsCkyKjqZSJyZRRFr4hIFEXRkv7+fhGRuaq6n7X2O8ABQFsURfcaY+6IougnwOJSqfR60s+9e1swz/NWAxeVy+Vfj1d3cHDwHaMAY8zkVgDQo6oHAyeJyE3AGRs3bpyjqh8RkQLwCvB37e3ty1999dUZvb29G4rFYiGKogzxcpvUpjMRPM9boKoHqeq4nx+AWq22q0GbfD5/qjHmQlVdJCL7AIGqfi0IghVjtBFr7bnAFcAHiM3l14BeYJnv+7fs4nnDslhrv6KqBRHpF5E+krmKoigSkWW+71cywErgChGZo6qfSNq2GGP6VfVCx3EeK5VKPb7vQ7xBU6vVzjHGHJHL5VZ2d3dvGm+CxuEEa+2yZJCtItKqqgcBVKvV7ol0MJYC8vn8hx3H+Y+kv9uI7fW/BI4RkXvy+fxhlUplzY7trLX/AlwN/EREvgBMVdW/AI4HrgHGVICqDstijHlcVYuqerHq8Hv6HPCiMaYJIBOG4R2O4/xTcnOdqm4xxjwfRdHMTCbzYBRFLZ2dnS09PT1vNHRcAtY2NTXNJraY9oRm4tBHm6pOBeYC+wDRRL3voaGhnUIqyX71M1XNAA/5vn8hoLlc7nbHcV4CmkRkMTBCAcVicW4Yhp8H+nzf/zjbV/hN1tp/Ay7L5XLZXbx4wwro6up6zFp7FPApVV0JXB0EQaMJjunu7i4Dv0uu54lIQVVPAfqGhoYyIjIjk8mc3dDGKZfL9wF/DMNwzkQmaBwe9H3/BN/3jw6CYJHv+/uq6p1MwpqYM2fOTnWjKOon9hUeqlar55NMZDLeXgAR2SmGVKvV5hObkzM8z1vUcEvz+fxVqvqlCYrlJCvp66p6aRAEZ+w4+bDdDF2lqocQm6IbVPUbQRDc7LruqVEUnWyMeaihTZgMcI4xZtJ27wRQY8w3VPXTE20w2icoCIIAOGSMJoMwetggk8mUwzCsAlNU9RnP85aFYXh9pVJ55YknnqgB148jjixcuLCtWq3eCZwJfCYIgtvHqmwAVPWx5Ho6kBeRk6y154vIX0dR9N0oip6qd15vOG3atKcSD3mvUy6XXxCRMyZaPwzDCa2WBQsWzHFd9xKgAKCqO3nQiWV3LfGKmaqqVxpjuqy1/1osFjsn8JgTq9Xqr4knH1Ut7KqyAXAc50mgAjyflPcCVRG5qVKpBI7jzPU8L9fZ2Tk1n8+fUCgUFg0ODuaJv9dvCuVyeeVE60ZRNKYCrLULXde9wVr7wtDQUCAil7A9BDNq4Mz3/W+JyJls3x9agCvCMHzRWvvJccT5UwBVXQ0gIl9yXffwsSobGNb6I6r6/aT8XCCnqqd3dHS01Gq1RUnEslVEojAMl9ZqtemqOuHY/pvJaApwXXeW53l3AS+KyHEi8oXW1tZ23/ePBEow+gqoUy6XV/q+v0hEPl2fTKANuNVam9+FOKva29sPIV4B/UCziNw1b968aaNVbrQe1opIfVOdp6pVYFpzc/MTInI58NtMJrNPEARPGmP+u1arPS8iPbsQ5C1jNAWIyO2q+ikgGBwcXFwul1c2RHCjHX6HKRaLc2lYIeVy+a4gCA4VkWuTslZVXTKWLCKy6tlnnx0KgiBQ1WuS4g+0tLTcwigJsOECx3FuBT5MbBE5IvItVb0ZmC4id/u+f3XdZi6Xy7/p6el5Q0R8z/PG2ujGRFWzjTJPtv2O7URkRFQ2SVGellyu2dGcTUxTjDEjMm0AYRjeYq39xx2Ko3K5/HXiMD3AiOclUeEMQBRF9aQSQRAsAx5OZDzP87wb2WG8wwoolUo9QCAia5OiDPBJYF2SRNkJY8xTick6KUTk5IbLwzs7O1sm2wex71CX4/TGG4m10ptcnuh53unFYnGG67qHu6779yLiJfcut9b+0Fr7vYbmQ8B11tp/9jxvZr3QWrsQmE9sQT28gyyHkcyliBzTUK5hGJ4H/AFAVS9xXff2BQsWDJvvI7Thuu4SEbkKqNv9T4jIxVEUzTfGOIk7vbarq2s9QLFYLIRheJXv+5ePM1kk9edGUfRlVb2IkW/RNlX9LbA8eWt2hbHWfhO4nNiJg9hi+SVwh+/73wWw1l5AnLpsHONWEbkNmJV8ngDWRVF0aaVS+TGA53nfVtXP1+USkXIURSoiC4EB4HO+7/+oYc4uEpHriZ3HOq8CP69Wq5f29vZu8DzvAFX9JVD3O0JgjYhcOtqxlK8Su+vzkqII+BHgAQuBp4E7fd+/Lcmg3WmMub6rq+vpcSaOXC6XNcZcICJbRKRPVYeSScxCnHosl8urxunGWGuvVlURkT4R6Y+iaIqINAO+7/uP1it6nneMqp6lqhljzOqmpqYHkvC2WGs/IyJD1Wp1RaOXD3FqNgzDo0WkICJtURRtNMaUarXagzt6wJ7nfSKKogOMMf3A5mTvBGBgYGDlunXrtib1jgbOVdUtSYyrzxizYjQFHA8sJVZC3dG6H/g+8BXgYFV9JgiCj0KcSRORv/F9/zQmmZBOGWVX9n3/ZyLyBtDovfW2t7c/RPy2DhhjbqzfCILgYVW90lo7VuYqZReMFUXcz3GcG1R1NnAycXhiqYgocfTUAdY4jnNWqVTqgnj/UNWWSqXy4Fsm/XuAUWM5mzdv3pLNZmeIyBBwLHGYeKmqThORFhF5knjjbOvr6/s5wPTp019vamo6Z9asWa/09fVteAvH8K5mtKOJAJTL5VujKNIkMlkDRERqwICqngkcpaqZXC5XN+lIQq6X7b///m9KjOi9yC6jmfPnz//V0NBQTkR+AxwvIuuJkxGbgdeBacaYy7LZ7JFRFK3q7u4uzZw5sy+TydybzWYf3bRp08a3YAzvanapgNdee63a3t7+mqoeKCJPARcS+wiHA0URyRCn7Nodxzm7ra3toe7u7jXZbHZbFEXL2tvbN2zatOl3u3rG+50xP0F1yuXyHxzHuQ+YDVzHyAzYemLP0ReRF5qamq4EpFwu/8AYc5qqHu953n2FQmHRKF2PkMPzvAN2dxDvZiYch8nn8/sZY64iPju0dKx6qnpaEATDCZwlS5ZkKpXKDao6R0Ru9X1/FQ3+QrFYnFur1VaISKfv+x7bT5i9L5hwRmvz5s1b5s+f/+TQ0NBxwNFAD/GJ5sbY+lYRmT1r1qx9+vr6nvE8L7dp06YPGmMeEZF+4M+z2ewXs9nsh7LZbHbmzJkG+LGIHA2c0tfXNxxdLRaLzRs3bnzPK2O3IpGJW/05VV0LLAEWE592buR/iQNmz4rI/6jqScAyEVkDHKqqlwAzROS/klCCQ3zqYDPxEZATRWS5qhpgtu/75+/WCN/h7MmBJuO67lki8kFgjap6wIeMMYPJnxTqSYt+4iDWVuJj7wPE5+n3Yfvq2Up8FH0mI/clBYZU9adBEEw4RfluYq+cKEuiokcARlVPFZEBETlYVacQRz37iBUyO2nSxih/DiHe4B8BXgA6VHW567rPJuHl9yRvxpE+yefzruM4BwKzgG3AtiiKmoiPvE8H9gX2J95HAqAShmFvW1tbaU/+d5CSkpKSkpKSkpKSkpKSkpKSkpKSkpKSkpKSkpKSkpKSkpKSkpKSkpKSkpLyPub/AXTbu/K4AMUcAAAAAElFTkSuQmCC;" vertex="1" parent="1">
          <mxGeometry x="157" y="330" width="96" height="96" as="geometry" />
        </mxCell>
        <mxCell id="lzqDUzzG9wcNbirKXYka-6" value="" style="rounded=1;whiteSpace=wrap;html=1;fontSize=20;fillColor=#f5f5f5;fontColor=#333333;strokeColor=#666666;" vertex="1" parent="1">
          <mxGeometry x="414" y="135" width="366" height="275" as="geometry" />
        </mxCell>
        <mxCell id="lzqDUzzG9wcNbirKXYka-7" value="使用的技术" style="text;strokeColor=none;fillColor=none;align=left;verticalAlign=middle;spacingLeft=4;spacingRight=4;overflow=hidden;points=[[0,0.5],[1,0.5]];portConstraint=eastwest;rotatable=0;fontSize=28;" vertex="1" parent="1">
          <mxGeometry x="490" y="70" width="260" height="40" as="geometry" />
        </mxCell>
        <mxCell id="lzqDUzzG9wcNbirKXYka-8" value="" style="shape=image;verticalLabelPosition=bottom;labelBackgroundColor=default;verticalAlign=top;aspect=fixed;imageAspect=0;image=data:image/png,iVBORw0KGgoAAAANSUhEUgAAAGAAAABgCAYAAADimHc4AAAABmJLR0QA/wD/AP+gvaeTAAAM10lEQVR4nO2da3AdZRnHf+9eztmT+z05aZK2aUpSGhraAlXA4ih2SqGto+MXZxw/iuigDhcd0RFRBLQKiB+AUpECAhUQHaEFodhybykUeqG06T30kvSS9JqkSY4f9qSk5+y7u++ec5Ijnt/MTuacJ++7z+6z+55n/8+7u5AjR44cOXLkyPH/Sgj4LXAAiGXJ0gf8B5iShu2bArwa73Ost2t42QfcAZgAi7LAIdmyFyhW3uWfUgTsyYLtkC13ARzOAkfclkWqe30Ed2WB/25LJ8DRLHDEbekDzlPc8QBNQG8W+O+2HNKAJwNs3GgSIthZsAgIp9mXdLMMoBroYeyPBq9lrsKGfSkL/PVajgNREXf458BtTlvSfP0CauddrLDtNgMbu9f0vtJ1iUqb/t5TbFj9HEODA07mj4A24IxHNzrwPnBBokHTdS74wlcJRfKV3Mr/1oT9oswcr9II4JPn17L1vn/KzD8DbtfiHxZhZwtJ7Fz6CgMne1XXjdFaconIN9aptAlZeUQbp8rMU4Dv+OjmuzjsfICaia2qOx+jseDtIDt/8HQfux5bKTN3AHcDDAfgNHZEkujvPsmeZa+prh+AyMJoKd5H7Dl47KTbgHKX5qXAL5wMHsF1Rogua071TLVGNrufXE3/0RMy80+AU/BpAAAeA9Y6/ffev79J78FuZSe0SqtRr4u8o9RG16lvlm6zdAfH+SVQ4WSoa56JphsqrhCaVbadsKZ2ygB9XT10PPeWzPwe8MTwh5EBiAE/iP89h6H+AXY8/G9VPwCwrq5tA3FEpU1ZdAKFpVUy83U4DzFTgGudGhSUVFJeO1HFBURI/9icVTZLqVGc9odeZLBPeuL/EBga/qAlGN8CnnVqdXDVBno2Of5MuCIsrTA8s2SLaruG8y8BIZxMOvHxM4E/EL+0P9cBQcP5yklEzJpbNSTA0QE3jm3poHP1Rpn5b8A543liAABuxr74SXApRvviFRBLOkE8MS8r/5wwtW0qbfKKyqgYN0lm/jJwzYjP85GkqRW1jeQXO45KUrTy8Bp9YoG6DhWL0b54uWwf9QM/TVqXwz/uAP7k1MOxLXvdoitHCC00Lzoshvmm7rwZ6EbyQR3nHuwLLemFmqYb1DVPV1klwGlrQVRtvIrTuWqj2yhxL9Ce+KVTAAB+DRxyMmz/80sM9Tvm6a6YE/JatbKQ44+8tE3YIjrJMaMEmAR8H7geiVRRO+kCzHCekp9GS+F7WpEp/QGSMTQwyI5HXpaZjwB3Ohl0SYNe7NR0XqJh4GQvRiRM8VTl1Bh9Qn74zPpucBqrJRQUl3N4/y4Gz/Q7mWcBswEr0RCOFNB44RcQQnaMOaCJA5Fv1E8SulBLl4C9T79B52vS0eFmYJXjKl36vB/Y5GTY9cQqtxxXilZsVhjNhe+rtBGaTn2LNC0tRiJX10+5CE2THV/OhGdX7hOmUNaPzvScZPdTq2XmLcADMqNbAAawLxiSGDzdx67HX/Xt4Eisr1RdjC4+UWlTWt1AUUXU9/8XlddQWt2g5Jew9E3mtKIZSo3ieKgFN+JyMep1fv4LeMnJsO+Fdzm566AvB89B10Lh2ZXKDRumXIxwTkvPQQhB/RTltHMoMj9qSdJeV07t6WLfCqnishJ43q29nwHyJmAw8cvY0BDb7n/BR/NkzGnFM7Q8fYNKm0hBCRV1kz3/r7J+MnmFpUr+aDWRNVptRJrzurHtweXEBoecTEPY+8593T7W8SHwsJPh6PodHHlXKb0/i7Wwrhh7mPNNXfN0DFM+ROtmiHGTL1TyI0bshHV1TYtSozge278EW3ZwxW+KcAtwzMngcgS4r7gq1KCPi7yr0sYww9Q2SdNSxjVNwwglJUSumNNKN2kFRolSIzxHgBO4a1Zn8RuATuB3ToZTe7rY/6KS6nyWyDXRViE4qtKmanwLVn5R0vdWfhFV49UOZKHTEZ5dcZFSozj7V6xz+w28E9jvpx+FJJnfY89SSGLn0lcYOJWsXnhi6QXGhWVKY5gQGo1tl2OYobPfGWaIxrbL1XJ+IHRldbfQhVquCgyc6mPno1Ktfy+2LuULlZUPAF3A1xINg71nEEDpdPXfMaM+Utv//tEdDFHmt03IyqOirgkrv4iSqnoaps5yPCvcEAXGRmtOTauyw8Cux151G/u/h4+xfxi1QwYeB9Y4GfY+8wan9yupznEPhIjMjSZlWV6YIYvK+slU1k/GVBz3gQFrwTjfAR+Jh9a/BvirSn+qAYhh69nJNYOBQXb8RaqFuKI35p+nlYZ9HzWpok+IrNMrQ7VB2npo/TeiKDiqBgDsmsEzTobO1Rvp2bQ7QJdgLYyOx9agMkpM0B2eE5WnUi54aP3LSND6/RAkAJCBmoFWbJYbkws+COiPb8IzS7drEV1NIgU/Wv8tQfwJGoCdwH1OhmNbOuhcFaBmAITn1MxA+EvfAmFqu0KfLw+k93ho/ffgoPX7IWgAAG5HUjNoX+I6TkoRhjDDV1QdTsEnVyJzqvvR1AUfD62/C/hNUJ9SCUA39iyEJDwyBVfMaUWtIs90lMFTQZSG1utNBUHmmHpleLdizywMRCoBAJeagce8GDlCYM2vLmbEzIE00B9ZUDsuSMMzPa7zorYAiwN7ReoBcK8ZyGeGuaLXROqMaCRtaakxuXC9VmJWBmm74xFXrf8GFCeeJZJqAMCtZrDcVS9xJXxNdCqC46k4BoAQh6wrq9qCNPXQuVYCwfT4EaQjAJCBmoHI0yOh6SVbU3XMvLR8PyEt0DT1bQ+8IFN6B7EvSFMmXQHISM0gdGnFDExNfTZYHGHp20MXlQa66Dq8ditH1kkzyyWAUkFJRroCABmoGaALEZlb7Tgdwgcx66pqU73IaJ+525c4jqpga/23BvQpiXQGwLVm4FI3dUVvLGjSSgzlo02vstbrDflqlfk4HvXuO/Cp9fshnQEAu2bgKAYFvc8AwFo4rh4n6UNOb/jq6qYg6/KY8dGBfdWbNtIdAOl9Bh75tCtaSajEbMr3rW8YUws3a0WhwiDr8pjz9GPi8/rTRboDAHbN4E0nQ+CaARCeU9OGJro8/1HXDoa+WK1WmY/Te7DbS+t/QmYMSiYCEEOii6dSM8DUjPClZY7a00jCV1Qc0QzF2mQcj3mvN6Co9fshEwGADNUMzBmlU0REl+a0Is/YarYWBXq8gcfM72XA60H69SJTAYAM1Axsnai2EGedaMiaHy0MMrvNw6fAWr8fMhmAncAfnQyp1Az0qFVjVFsfJn0/LvKBXmP5n0A6Ao+7fwJr/X7IZAAAfgU4JtRBawYA4QXRlph9QQRADE6Er4oGmt3mcf9bSlq/HzIdgOPYQUgilZqByDOscFvJ9uHP4emlO7R8PRKkL487QFPS+v2Q6QBAJmoGgDm7og1T2ysM8Yl5WXkgvcfjHuiUtX4/KM8KC0AM++r4m0mGgUGGevspn9Ws3KkQAq3QPGJMKhjUK8Nq06HjtD+4gp7N0rH/28DHQfpVYTTOALDnyKe9ZmC0FE40mgsD3VA3Glq/H0YrAAA/wmE6eio1g1QYDa3fD6MZgM1koGYQBA+t/yHSpPX7YTQDALZQl96agSIeWv9x0qj1+2G0A9CJ/YTGJFKpGajgQ+s/kHEnRjDaAYAM1Qz84EPrvzdjK5cwGmloItL7DIb6ziCECHSfgR92PrrSbey/FvtJW6PKWJwBYM+hT3vNwA0Prf8dxujhhWMVgMzUDFzw0PqV5/Wni7EKANg1g6edDKnUDJzw0PqfIkNavx/GMgBg11jTWzNQ6yujWr8fxjoAGakZjMRD678b2C4zjgZjHQBwqxk8tCJwzQB8af13BO48TYxFGppIP5JnEw2e6kOPhChpVX82EcCep1+n6/XNMvNNjOHYP0w2nAGQgZqBh9b/EaOg9fshWwIwiP2DnGw47XpXupSdS1/2mtev/ty1DJAtAQCXmoHHcxmSOLmnk/0vSu/vWAksV/YuQ2RTACBNNYP2B6TK6qhq/X7ItgC41gwOr/W+XyObtH4/ZFsAwKVm0L54hWvNINu0fj9kYwDcawbL5c94yjat3w/ZGABwqxk8utIxu8lGrd8P2XAh5sQA9pnw9UTDUPzKuCyhZrBzafZp/X7I1jMA7Ln4bzgZOp5985yaQe+Bo3T8I/u0fj9kcwB81wxctH5pH9lCNgcA4G3sZ+4n0blqAz2bdtta/2vSR0uMqdb/WWEikheyFbXUx4pa6mWviTodb5sjDQR5JeGYS82fJQpRe9trJ6m9BDSHA9fhPwCOL/PJkRo6to7jtfM3A8ovYMjhj3l4B0DlnZM5ArAC+c5P/4SiHEmcj/2UqsSdP4DkHZI50s99JAcgK8W2zyphbMX0UHxZhP0+sRw5cuTIkeN/hv8CuflD+2ViCfIAAAAASUVORK5CYII=;" vertex="1" parent="1">
          <mxGeometry x="450" y="160" width="80" height="80" as="geometry" />
        </mxCell>
        <mxCell id="lzqDUzzG9wcNbirKXYka-9" value="" style="shape=image;verticalLabelPosition=bottom;labelBackgroundColor=default;verticalAlign=top;aspect=fixed;imageAspect=0;image=data:image/png,iVBORw0KGgoAAAANSUhEUgAAAGAAAABgCAYAAADimHc4AAAABmJLR0QA/wD/AP+gvaeTAAAODUlEQVR4nO2be3Qc1XnAf9+dlWXJlu2VbQyy2J07u9gBzBuSJgFsCI/yTBs4aYgJcNIcOBQKoZySBE5fSfMgPSFpTwM4NKExzxJKDDnHvGIeCaEJCSmFGIdktTMrS4DNsS0jW1irnfn6x8zKK1uyJNu85/fPnrlz753v3m/u3O9xF1JSUlJSUlJSUlJSUlJSUlJSUlJSUlJSUlJSUlJSUlJSUlJSUlJSUlJSUlL2CrJjgbX2bBHZqKr9vu//39sh1PsJM0rZYar6D8Apb7Uwk6VQKHzEWrtsyZIlmXeALEVr7W2e531sMu12UkC1Wr0RWADkCoXCUfl8/sC9JSQgCxcubJto5WKx2JzL5bIdHR2tjeXW2uOstSuiKPoFcPHatWvb96KMk6JYLB7sed7NURStBs5X1SMn036nN6e5uXmxqu4LXBJF0XHGmEM7Ojqmv/zyywN7QdiDqtXqc9baDDAEbAGqwFZgGjAlqZoFCMMQx3FwHOdRkhXpuu6FwH+OGEQm88aeyrY7FIvFGWEYPg3MaCiOJtPHiBVQKBQWqeq9xBPRBPwKeLq5ufkRa+11hULho3sicKlUWi0iRwK/T/rPAlVV/aGqfltEviki3xOR60XkbmLlICJd9T6CIFguIkuB4UnfunVrbU/k2l1KpdLrTU1NBeCeepmITEoBIzbhefPmTWttbd0C/JF4kl4VkQdUdXlSd5aIfLalpeWO1atXV3dXcM/zPqaqP00ub/N9/4LR6rmu+3ERWQF8zff96xrvWWv/HbgMwHGcqaVSaXB35dlTXNfdV0ReAVDVq4Ig+M5E2w6vANd1T21tbb07uewknuyXgTZV7QB+kTzgBwMDA8+7rvtnrutO3R2Bq9Xq7xsudax6QRDcDzwK9I1ye7iPzs7OcHfk2FsEQbAOqMsw5nhGIwPguu5iEbkHGAQ2AJuAj6rqscSrYLqqrheRa4CXVFUcx+lR1b+y1lrHcW4ulUqrJ/rQpqamCX8ypkyZcs4Yt962N34UlFgBzmQbZgBEZAHxhtiRlBsReSCKoseB9caYfsdxLq0vc9d1p27ZssVpaWm5VkTODMPws9ba83zff2DvjGc7L730Uv94dfr7+3fyZ95GJiVLxvO8L6rql4HHgUERuT+Xy/1tpVI5EVgfBMFzEE+653mHqOqfAMe2trYe6zjOEf39/WFra+tpwELXdacGQbBtrw9pHLZt2/ZOUsCkyKjqZSJyZRRFr4hIFEXRkv7+fhGRuaq6n7X2O8ABQFsURfcaY+6IougnwOJSqfR60s+9e1swz/NWAxeVy+Vfj1d3cHDwHaMAY8zkVgDQo6oHAyeJyE3AGRs3bpyjqh8RkQLwCvB37e3ty1999dUZvb29G4rFYiGKogzxcpvUpjMRPM9boKoHqeq4nx+AWq22q0GbfD5/qjHmQlVdJCL7AIGqfi0IghVjtBFr7bnAFcAHiM3l14BeYJnv+7fs4nnDslhrv6KqBRHpF5E+krmKoigSkWW+71cywErgChGZo6qfSNq2GGP6VfVCx3EeK5VKPb7vQ7xBU6vVzjHGHJHL5VZ2d3dvGm+CxuEEa+2yZJCtItKqqgcBVKvV7ol0MJYC8vn8hx3H+Y+kv9uI7fW/BI4RkXvy+fxhlUplzY7trLX/AlwN/EREvgBMVdW/AI4HrgHGVICqDstijHlcVYuqerHq8Hv6HPCiMaYJIBOG4R2O4/xTcnOdqm4xxjwfRdHMTCbzYBRFLZ2dnS09PT1vNHRcAtY2NTXNJraY9oRm4tBHm6pOBeYC+wDRRL3voaGhnUIqyX71M1XNAA/5vn8hoLlc7nbHcV4CmkRkMTBCAcVicW4Yhp8H+nzf/zjbV/hN1tp/Ay7L5XLZXbx4wwro6up6zFp7FPApVV0JXB0EQaMJjunu7i4Dv0uu54lIQVVPAfqGhoYyIjIjk8mc3dDGKZfL9wF/DMNwzkQmaBwe9H3/BN/3jw6CYJHv+/uq6p1MwpqYM2fOTnWjKOon9hUeqlar55NMZDLeXgAR2SmGVKvV5hObkzM8z1vUcEvz+fxVqvqlCYrlJCvp66p6aRAEZ+w4+bDdDF2lqocQm6IbVPUbQRDc7LruqVEUnWyMeaihTZgMcI4xZtJ27wRQY8w3VPXTE20w2icoCIIAOGSMJoMwetggk8mUwzCsAlNU9RnP85aFYXh9pVJ55YknnqgB148jjixcuLCtWq3eCZwJfCYIgtvHqmwAVPWx5Ho6kBeRk6y154vIX0dR9N0oip6qd15vOG3atKcSD3mvUy6XXxCRMyZaPwzDCa2WBQsWzHFd9xKgAKCqO3nQiWV3LfGKmaqqVxpjuqy1/1osFjsn8JgTq9Xqr4knH1Ut7KqyAXAc50mgAjyflPcCVRG5qVKpBI7jzPU8L9fZ2Tk1n8+fUCgUFg0ODuaJv9dvCuVyeeVE60ZRNKYCrLULXde9wVr7wtDQUCAil7A9BDNq4Mz3/W+JyJls3x9agCvCMHzRWvvJccT5UwBVXQ0gIl9yXffwsSobGNb6I6r6/aT8XCCnqqd3dHS01Gq1RUnEslVEojAMl9ZqtemqOuHY/pvJaApwXXeW53l3AS+KyHEi8oXW1tZ23/ePBEow+gqoUy6XV/q+v0hEPl2fTKANuNVam9+FOKva29sPIV4B/UCziNw1b968aaNVbrQe1opIfVOdp6pVYFpzc/MTInI58NtMJrNPEARPGmP+u1arPS8iPbsQ5C1jNAWIyO2q+ikgGBwcXFwul1c2RHCjHX6HKRaLc2lYIeVy+a4gCA4VkWuTslZVXTKWLCKy6tlnnx0KgiBQ1WuS4g+0tLTcwigJsOECx3FuBT5MbBE5IvItVb0ZmC4id/u+f3XdZi6Xy7/p6el5Q0R8z/PG2ujGRFWzjTJPtv2O7URkRFQ2SVGellyu2dGcTUxTjDEjMm0AYRjeYq39xx2Ko3K5/HXiMD3AiOclUeEMQBRF9aQSQRAsAx5OZDzP87wb2WG8wwoolUo9QCAia5OiDPBJYF2SRNkJY8xTick6KUTk5IbLwzs7O1sm2wex71CX4/TGG4m10ptcnuh53unFYnGG67qHu6779yLiJfcut9b+0Fr7vYbmQ8B11tp/9jxvZr3QWrsQmE9sQT28gyyHkcyliBzTUK5hGJ4H/AFAVS9xXff2BQsWDJvvI7Thuu4SEbkKqNv9T4jIxVEUzTfGOIk7vbarq2s9QLFYLIRheJXv+5ePM1kk9edGUfRlVb2IkW/RNlX9LbA8eWt2hbHWfhO4nNiJg9hi+SVwh+/73wWw1l5AnLpsHONWEbkNmJV8ngDWRVF0aaVS+TGA53nfVtXP1+USkXIURSoiC4EB4HO+7/+oYc4uEpHriZ3HOq8CP69Wq5f29vZu8DzvAFX9JVD3O0JgjYhcOtqxlK8Su+vzkqII+BHgAQuBp4E7fd+/Lcmg3WmMub6rq+vpcSaOXC6XNcZcICJbRKRPVYeSScxCnHosl8urxunGWGuvVlURkT4R6Y+iaIqINAO+7/uP1it6nneMqp6lqhljzOqmpqYHkvC2WGs/IyJD1Wp1RaOXD3FqNgzDo0WkICJtURRtNMaUarXagzt6wJ7nfSKKogOMMf3A5mTvBGBgYGDlunXrtib1jgbOVdUtSYyrzxizYjQFHA8sJVZC3dG6H/g+8BXgYFV9JgiCj0KcSRORv/F9/zQmmZBOGWVX9n3/ZyLyBtDovfW2t7c/RPy2DhhjbqzfCILgYVW90lo7VuYqZReMFUXcz3GcG1R1NnAycXhiqYgocfTUAdY4jnNWqVTqgnj/UNWWSqXy4Fsm/XuAUWM5mzdv3pLNZmeIyBBwLHGYeKmqThORFhF5knjjbOvr6/s5wPTp019vamo6Z9asWa/09fVteAvH8K5mtKOJAJTL5VujKNIkMlkDRERqwICqngkcpaqZXC5XN+lIQq6X7b///m9KjOi9yC6jmfPnz//V0NBQTkR+AxwvIuuJkxGbgdeBacaYy7LZ7JFRFK3q7u4uzZw5sy+TydybzWYf3bRp08a3YAzvanapgNdee63a3t7+mqoeKCJPARcS+wiHA0URyRCn7Nodxzm7ra3toe7u7jXZbHZbFEXL2tvbN2zatOl3u3rG+50xP0F1yuXyHxzHuQ+YDVzHyAzYemLP0ReRF5qamq4EpFwu/8AYc5qqHu953n2FQmHRKF2PkMPzvAN2dxDvZiYch8nn8/sZY64iPju0dKx6qnpaEATDCZwlS5ZkKpXKDao6R0Ru9X1/FQ3+QrFYnFur1VaISKfv+x7bT5i9L5hwRmvz5s1b5s+f/+TQ0NBxwNFAD/GJ5sbY+lYRmT1r1qx9+vr6nvE8L7dp06YPGmMeEZF+4M+z2ewXs9nsh7LZbHbmzJkG+LGIHA2c0tfXNxxdLRaLzRs3bnzPK2O3IpGJW/05VV0LLAEWE592buR/iQNmz4rI/6jqScAyEVkDHKqqlwAzROS/klCCQ3zqYDPxEZATRWS5qhpgtu/75+/WCN/h7MmBJuO67lki8kFgjap6wIeMMYPJnxTqSYt+4iDWVuJj7wPE5+n3Yfvq2Up8FH0mI/clBYZU9adBEEw4RfluYq+cKEuiokcARlVPFZEBETlYVacQRz37iBUyO2nSxih/DiHe4B8BXgA6VHW567rPJuHl9yRvxpE+yefzruM4BwKzgG3AtiiKmoiPvE8H9gX2J95HAqAShmFvW1tbaU/+d5CSkpKSkpKSkpKSkpKSkpKSkpKSkpKSkpKSkpKSkpKSkpKSkpKSkpKSkpLyPub/AXTbu/K4AMUcAAAAAElFTkSuQmCC;" vertex="1" parent="1">
          <mxGeometry x="442" y="290" width="96" height="96" as="geometry" />
        </mxCell>
      </root>
    </mxGraphModel>
  </diagram>
</mxfile>
